<svg id="Group_29381" data-name="Group 29381" xmlns="http://www.w3.org/2000/svg" xmlns:xlink="http://www.w3.org/1999/xlink" width="58.883" height="65.733" viewBox="0 0 58.883 65.733">
  <defs>
    <clipPath id="clip-path">
      <rect id="Rectangle_18659" data-name="Rectangle 18659" width="58.883" height="65.733" fill="#3fd0c9"/>
    </clipPath>
  </defs>
  <g id="Group_29381-2" data-name="Group 29381" transform="translate(0 0)" clip-path="url(#clip-path)">
    <path id="Path_28838" data-name="Path 28838" d="M52.56,28.19c.79-5.533-1.317-7.113-1.317-7.113C60.2,18.179,49.135,0,27.795,0S3.82,17.652,3.82,17.652V28.98S0,30.166,0,36.357,6.323,44,6.323,44c6.849,19.891,17.652,21.735,20.418,21.735s3.82-.264,3.82-2.766-4.084-2.107-4.084-2.107c-10.538,0-16.861-21.341-16.861-21.341s-4.478-.264-4.478-3.425a4.6,4.6,0,0,1,2.9-4.216V26.345c10.275-2.371,12.119-7.9,12.119-7.9C30.693,24.5,46.5,21.867,46.5,21.867l1.317,3.161v19.5c0,5.989-8.258,6.34-10.333,6.332a5.3,5.3,0,1,0,.147,4.734c14.664.471,15.192-12.12,15.192-12.12,3.161-.264,6.059-1.581,6.059-8.43a6.37,6.37,0,0,0-6.323-6.85" transform="translate(0 0)" fill="#3fd0c9"/>
    <path id="Path_28839" data-name="Path 28839" d="M21.235,44.338a3.03,3.03,0,1,0,3.03-3.03,3.03,3.03,0,0,0-3.03,3.03" transform="translate(-4.374 -8.508)" fill="#3fd0c9"/>
    <path id="Path_28840" data-name="Path 28840" d="M48.709,44.338a3.03,3.03,0,1,0-3.03,3.03,3.03,3.03,0,0,0,3.03-3.03" transform="translate(-8.784 -8.508)" fill="#3fd0c9"/>
  </g>
</svg>
