<svg id="twitter" xmlns="http://www.w3.org/2000/svg" width="63.372" height="63.371" viewBox="0 0 63.372 63.371">
  <circle id="Ellipse_16" data-name="Ellipse 16" cx="31.686" cy="31.686" r="31.686" transform="translate(0 0)" fill="#3fd0c9"/>
  <g id="Group_672" data-name="Group 672" transform="translate(14.59 19.658)">
    <path id="Path_206" data-name="Path 206" d="M62.217,37.6a15.192,15.192,0,0,1-4.374,1.2,7.635,7.635,0,0,0,3.349-4.212,15.243,15.243,0,0,1-4.835,1.847,7.621,7.621,0,0,0-12.976,6.946,21.615,21.615,0,0,1-15.7-7.957,7.623,7.623,0,0,0,2.356,10.166,7.561,7.561,0,0,1-3.449-.953c0,.032,0,.065,0,.1A7.619,7.619,0,0,0,32.7,52.2a7.644,7.644,0,0,1-3.438.132,7.623,7.623,0,0,0,7.113,5.288A15.371,15.371,0,0,1,25.1,60.769,21.538,21.538,0,0,0,36.774,64.19c14.006,0,21.665-11.6,21.665-21.666,0-.33-.007-.659-.022-.985a15.441,15.441,0,0,0,3.8-3.941Z" transform="translate(-25.103 -34.028)" fill="#2b2b2b"/>
  </g>
</svg>
